<svg width="353" height="353" viewBox="0 0 353 353" fill="none" xmlns="http://www.w3.org/2000/svg">
<path d="M27.8539 64.395C17.5673 72.2548 12.2723 94.207 11.1691 125.26C10.066 156.313 15.9126 173.191 17.9533 178.293C19.9941 183.395 35.3276 191.006 52.5915 204.354C65.2498 214.144 164.641 283.338 176.417 288.715C195.143 297.237 207.057 280.001 207.057 280.001C207.057 280.001 216.985 285.682 226.582 280.001C238.303 273.051 236.924 264.419 236.924 264.419C236.924 264.419 249.003 267.205 255.153 261.772C261.303 256.339 264.033 243.294 264.033 243.294C264.033 243.294 272.168 246.99 279.063 240.84C285.958 234.69 291.197 226.361 283.889 214.999C276.581 203.637 246.852 167.841 239.13 157.802C231.408 147.764 211.552 90.5115 192.44 84.8028C173.328 79.0942 154.465 80.5558 134.498 86.4575C114.532 92.3592 95.8615 91.8077 73.6887 85.5199C51.5159 79.2321 27.8539 64.395 27.8539 64.395Z" fill="black"/>
<path d="M340.066 113.07C335.984 85.9059 330.607 67.4285 326.608 62.9609C322.03 57.8865 314.17 67.9801 297.54 73.8818C280.911 79.7835 250.961 82.0174 250.961 82.0174C250.961 82.0174 202.782 80.6109 184.746 86.6781C177.962 88.9395 111.029 117.152 109.016 128.983C108.161 134.002 113.732 145.226 127.576 146.357C150.053 148.205 178.155 128.624 178.155 128.624C178.486 128.073 181.823 127.135 197.184 127.135C212.545 127.135 230.388 137.201 231.518 139.076C242.991 157.968 253.884 171.205 264.391 184.001C272.086 193.35 290.177 218.088 290.177 218.088C290.177 218.088 310.502 194.067 315.687 188.524C320.871 182.981 340.093 168.944 340.093 168.944C340.093 168.944 344.34 141.476 340.066 113.07ZM73.3302 236.703C73.3302 236.703 65.9944 239.295 59.2929 229.671C52.5914 220.046 58.1898 213.427 65.0292 208.049C71.8685 202.672 80.9142 200.079 86.2919 204.161C91.6421 208.215 93.8759 215.247 93.8759 215.247C93.8759 215.247 104.962 206.202 114.946 211.745C124.929 217.288 124.295 227.382 124.295 227.382C124.295 227.382 133.974 221.508 144.151 227.382C154.327 233.256 149.336 250.189 149.336 250.189C149.336 250.189 161.167 250.547 163.373 262.213C165.579 273.851 162.821 286.233 149.501 288.467C136.208 290.673 128.431 278.208 128.431 278.208C128.431 278.208 115.139 286.233 105.321 279.615C95.503 272.996 96.6337 259.096 96.6337 259.096C96.6337 259.096 84.6372 261.082 77.8806 254.794C71.1239 248.506 73.3302 236.703 73.3302 236.703Z" fill="black"/>
<path d="M216.075 285.93C213.427 285.93 210.835 285.516 208.408 284.661C202.175 282.483 178.044 264.116 173.908 257.745C172.722 255.897 173.246 253.443 175.066 252.257C176.914 251.071 179.368 251.595 180.554 253.415C183.422 257.828 205.926 275.368 211.028 277.16C215.606 278.76 221.48 277.932 225.948 275.064C228.788 273.216 232.318 269.742 232.842 263.647C233.035 261.468 234.966 259.841 237.144 260.034C239.323 260.227 240.95 262.158 240.757 264.336C240.123 271.589 236.4 277.767 230.277 281.738C226.041 284.465 221.112 285.92 216.075 285.93Z" fill="#FFA500"/>
<path d="M245.004 267.949C239.571 267.949 233.725 266.239 226.665 262.627C217.978 258.214 206.533 246.879 198.176 238.634C196.494 236.979 194.977 235.462 193.681 234.221C192.109 232.704 192.054 230.195 193.571 228.595C195.088 226.996 197.597 226.968 199.197 228.485C200.521 229.753 202.065 231.27 203.775 232.98C211.304 240.426 222.693 251.678 230.277 255.539C239.847 260.42 244.756 260.365 248.341 259.676C254.905 258.38 258.986 252.23 258.959 243.57C258.959 242.517 259.377 241.507 260.122 240.762C260.867 240.017 261.877 239.599 262.93 239.599C263.983 239.599 264.993 240.017 265.738 240.762C266.483 241.507 266.901 242.517 266.901 243.57C266.929 256.063 260.227 265.467 249.858 267.508C248.258 267.811 246.631 267.949 245.004 267.949Z" fill="#FFA500"/>
<path d="M267.811 248.451C265.688 248.451 263.537 248.093 261.468 247.293C250.299 242.936 235.407 229.202 215.937 205.292C215.315 204.468 215.037 203.436 215.162 202.412C215.286 201.388 215.803 200.452 216.604 199.801C217.404 199.151 218.426 198.836 219.454 198.924C220.482 199.012 221.436 199.495 222.114 200.272C240.426 222.776 254.629 236.096 264.364 239.875C269.245 241.777 276.498 239.02 280.856 233.614C282.896 231.077 285.82 226.03 282.29 220.653C274.485 208.766 266.598 199.169 258.242 189.02C247.541 176.004 236.482 162.545 224.707 143.186C223.576 141.31 224.155 138.856 226.03 137.725C227.906 136.594 230.36 137.174 231.491 139.049C242.963 157.94 253.857 171.177 264.364 183.974C272.858 194.288 280.856 204.051 288.908 216.295C293.459 223.19 292.742 231.546 287.006 238.634C282.593 244.066 275.23 248.451 267.811 248.451Z" fill="#FFA500"/>
<path d="M288.55 215.771L284.496 209.814C287.585 211.469 294.617 210.2 303.525 197.652C309.178 189.682 319.741 173.604 339.818 165.248C339.818 165.248 341.334 172.86 336.812 175.948C323.188 185.325 314.611 195.749 310.006 202.258C302.449 212.931 295.5 219.329 291.528 222.528C291.528 222.528 291.032 219.329 288.55 215.771ZM188.138 294.203C178.237 294.203 168.668 289.019 163.842 286.399C163.042 285.957 162.352 285.599 161.773 285.296L167.647 271.893C167.647 271.893 169.082 279.89 175.149 283.034C185.132 288.246 194.095 288.991 201.376 279.339L207.718 284.137C202.01 291.721 194.977 294.203 188.138 294.203ZM57.004 213.896C47.9032 204.299 36.7341 195.198 24.4343 187.255C23.8275 186.869 20.4906 184.718 18.8635 181.822C16.3263 177.327 16.933 173.494 16.933 173.494C34.39 183.201 50.3853 195.363 62.7679 208.435L57.004 213.896ZM109.182 94.7307C76.4742 94.7307 46.2761 82.2103 24.5722 67.649C24.5722 67.649 25.7029 65.36 27.854 64.3948C30.86 63.0435 33.1765 63.7881 33.5075 63.9811C53.6671 76.5016 80.3903 86.7607 109.154 86.7607H109.347C117.593 86.7607 128.68 83.4513 135.298 81.4932C136.539 81.1347 137.642 80.8038 138.608 80.528C154.879 75.9225 172.391 75.9776 197.156 80.6659L195.667 88.4705C172.198 84.0304 155.761 83.9477 140.759 88.1671C139.849 88.4153 138.773 88.7463 137.56 89.1048C130.527 91.2007 118.751 94.7032 109.375 94.7032C109.32 94.7307 109.237 94.7307 109.182 94.7307ZM255.567 173.163C255.567 173.163 253.36 167.344 257.056 164.062C261.386 160.201 266.239 161.58 269.604 161.635C269.604 161.635 263.068 159.925 254.739 156.588C244.397 152.424 237.282 147.267 237.282 147.267C237.282 147.267 239.13 150.963 244.866 159.65C250.575 168.337 255.567 173.163 255.567 173.163Z" fill="#FFA500"/>
<path d="M166.269 279.256C169.633 273.023 170.46 265.853 168.254 259.951C166.655 255.649 162.821 250.244 153.886 247.624C153.969 247.459 154.051 247.321 154.134 247.183L153.886 247.045C155.072 243.432 155.348 239.985 154.796 235.848C153.914 229.34 150.163 224.458 144.234 222.169C139.214 220.211 133.147 220.377 128.294 222.362C127.77 216.709 125.067 212.683 119.855 209.511C109.43 203.168 101.653 207.305 96.882 210.063C94.7585 203.968 89.4911 200.962 86.1541 199.61C82.1829 198.011 72.4754 195.943 60.9201 206.257L66.8219 211.662C74.7919 204.878 80.7488 205.981 83.2033 206.974C89.5462 209.511 89.3256 214.227 89.298 216.406C89.2705 218.557 88.9395 220.846 83.6721 225.727C77.1637 231.767 72.5581 231.794 72.5581 231.794C67.8974 232.346 63.7331 228.816 61.8302 225.313C61.1683 224.072 59.2103 219.825 61.8026 216.764C62.4094 216.075 63.6504 214.144 67.8698 210.835L62.0508 205.319C59.5137 207.415 56.3422 210.945 55.7354 211.635C51.8469 216.213 51.516 222.914 54.8529 229.092C57.6108 234.249 63.1815 239.102 69.9933 239.764C69.4969 246.383 71.8411 252.505 76.8327 257.332C82.1829 262.516 88.8292 263.068 93.4623 262.654C93.5175 267.287 94.5379 273.796 99.0607 278.456C108.051 287.695 119.275 285.351 126.556 281.462C129.176 286.785 133.892 290.591 139.876 291.997C141.559 292.383 143.268 292.576 144.951 292.576C151.239 292.576 159.374 292.576 167.372 276.94C164.89 275.395 162.518 274.182 160.422 272.941C154.327 285.02 146.247 285.323 141.669 284.248C137.505 283.255 134.443 280.442 133.037 276.388C139.683 268.942 144.372 263.068 149.584 254.767C155.486 256.008 159.264 258.683 160.781 262.764C162.104 266.322 161.58 270.9 159.54 274.982L166.269 279.256ZM96.4408 253.939C96.358 253.967 87.864 256.89 82.3483 251.568C78.6805 248.01 77.2464 243.708 78.1013 238.799C88.0846 231.711 96.7165 220.625 98.5091 218.226C99.1434 217.895 107.61 211.193 115.718 216.268C119.468 218.612 120.985 224.017 120.213 227.823C119.441 231.629 117.676 236.234 110.395 244.011C103.28 251.595 96.4408 253.939 96.4408 253.939ZM145.447 246.852C143.599 250.492 137.863 262.571 125.949 272.389C124.598 273.492 113.208 281.49 104.769 272.83C101.736 269.714 101.267 264.364 101.432 260.889C107.086 256.449 118.338 246.521 127.052 232.318C130.445 228.485 137.036 227.851 141.366 229.533C144.565 230.774 146.44 233.228 146.909 236.869C147.378 240.233 147.295 243.212 145.447 246.852ZM274.733 162.297C274.568 162.297 274.43 162.297 274.265 162.27C245.087 158.878 230.443 147.571 220.763 140.097C215.992 136.429 212.241 133.506 208.656 132.982C198.507 131.437 188.469 130.334 177.658 133.478C176.638 133.782 173.604 135.216 170.35 136.76C160.394 141.476 145.364 148.619 134.306 149.777C125.701 150.687 118.007 148.508 112.629 143.682C108.272 139.766 105.79 134.361 105.79 128.845C105.79 119.165 118.034 113.456 126.115 109.706C130.555 107.637 136.595 104.245 142.965 100.66C154.107 94.3999 166.737 87.2848 176.004 84.3615C191.227 79.5629 231.353 78.1288 244.204 77.991C273.024 77.7152 296.713 69.6348 314.722 60.3685C315.466 59.9824 318.748 58.2726 321.616 58.9896C325.615 59.9824 326.608 62.9885 326.608 62.9885C306.945 74.7092 280.083 85.6301 244.315 85.9886C228.54 86.1265 191.696 87.8088 178.458 91.9731C169.964 94.6481 157.719 101.543 146.909 107.637C140.4 111.305 134.25 114.78 129.507 116.959C124.791 119.138 113.76 124.267 113.76 128.9C113.76 132.154 115.304 135.409 117.952 137.835C121.62 141.145 127.163 142.607 133.478 141.945C143.186 140.924 158.05 133.864 166.958 129.645C171.453 127.494 173.88 126.363 175.452 125.922C188.827 122.006 201.486 123.909 209.842 125.177C215.44 126.032 220.156 129.672 225.617 133.864C235.159 141.228 248.203 151.294 275.202 154.438C277.381 154.686 278.953 156.671 278.705 158.85C278.456 160.808 276.747 162.297 274.733 162.297Z" fill="#FFA500"/>
</svg>
